<svg xmlns="http://www.w3.org/2000/svg" viewBox="0 0 64 64">
  <defs>
    <linearGradient id="g" x1="0%" y1="0%" x2="100%" y2="100%">
      <stop offset="0%" stop-color="#dfe9ff"/>
      <stop offset="100%" stop-color="#f4e9ff"/>
    </linearGradient>
  </defs>
  <rect width="64" height="64" rx="16" fill="url(#g)"/>
  <g stroke="#0b1224" stroke-width="3" stroke-linecap="round">
    <line x1="32" y1="12" x2="32" y2="52"/>
    <line x1="12" y1="32" x2="52" y2="32"/>
    <line x1="18" y1="18" x2="46" y2="46"/>
    <line x1="46" y1="18" x2="18" y2="46"/>
  </g>
  <g stroke="#0b1224" stroke-width="2" stroke-linecap="round">
    <line x1="32" y1="12" x2="28" y2="16"/>
    <line x1="32" y1="12" x2="36" y2="16"/>
    <line x1="32" y1="52" x2="28" y2="48"/>
    <line x1="32" y1="52" x2="36" y2="48"/>
    <line x1="12" y1="32" x2="16" y2="28"/>
    <line x1="12" y1="32" x2="16" y2="36"/>
    <line x1="52" y1="32" x2="48" y2="28"/>
    <line x1="52" y1="32" x2="48" y2="36"/>
    <line x1="18" y1="18" x2="22" y2="18"/>
    <line x1="18" y1="18" x2="18" y2="22"/>
    <line x1="46" y1="46" x2="42" y2="46"/>
    <line x1="46" y1="46" x2="46" y2="42"/>
    <line x1="46" y1="18" x2="42" y2="18"/>
    <line x1="46" y1="18" x2="46" y2="22"/>
    <line x1="18" y1="46" x2="22" y2="46"/>
    <line x1="18" y1="46" x2="18" y2="42"/>
  </g>
</svg>
